<?xml version="1.0" standalone="no"?>
<!DOCTYPE svg PUBLIC "-//W3C//DTD SVG 20010904//EN"
 "http://www.w3.org/TR/2001/REC-SVG-20010904/DTD/svg10.dtd">
<svg version="1.0" xmlns="http://www.w3.org/2000/svg"
 width="1024.000000pt" height="1024.000000pt" viewBox="0 0 1024.000000 1024.000000"
 preserveAspectRatio="xMidYMid meet">
<metadata>
Created by potrace 1.16, written by Peter Selinger 2001-2019
</metadata>
<g transform="translate(0.000000,1024.000000) scale(0.100000,-0.100000)"
fill="#38983f" stroke="none">
<path d="M6715 8244 c-180 -21 -294 -53 -440 -123 -252 -120 -415 -272 -574
-537 -29 -49 -64 -97 -78 -107 -33 -26 -130 -38 -243 -31 -243 15 -504 -102
-646 -290 -54 -71 -118 -197 -140 -276 -82 -292 -91 -305 -281 -404 -135 -70
-225 -135 -188 -136 11 0 234 -23 495 -50 261 -28 673 -71 915 -96 242 -25
468 -51 503 -59 216 -50 441 -229 541 -431 56 -114 76 -211 75 -374 -1 -153
-13 -228 -109 -675 -72 -339 -70 -328 -54 -333 8 -3 68 -33 134 -67 148 -77
278 -126 415 -157 139 -30 399 -33 530 -5 164 36 325 104 485 207 44 28 107
66 140 83 56 30 66 32 160 31 73 0 120 -7 171 -22 308 -94 561 -82 812 40 401
195 629 633 558 1068 -50 306 -210 539 -493 719 -84 53 -133 104 -153 157 -7
16 -16 97 -21 180 -18 297 -89 486 -248 656 -118 126 -231 197 -401 254 -83
28 -90 28 -310 29 -214 0 -227 1 -260 22 -46 29 -88 74 -139 151 -183 273
-437 464 -715 537 -126 33 -332 51 -441 39z"/>
<path d="M2427 6355 c-208 -42 -396 -219 -481 -453 -14 -39 -53 -205 -86 -369
-34 -164 -99 -478 -146 -698 -46 -220 -95 -452 -108 -515 -26 -122 -84 -398
-136 -640 -128 -605 -221 -1066 -226 -1125 -8 -82 10 -204 37 -257 43 -85 109
-108 437 -153 141 -20 464 -65 717 -100 253 -36 638 -89 855 -119 217 -30 688
-96 1045 -146 719 -101 743 -103 841 -55 74 36 155 120 198 205 37 75 45 106
141 570 36 173 72 344 80 380 8 36 49 227 90 425 42 198 109 518 150 710 40
193 103 492 139 665 37 173 77 365 91 425 132 587 137 639 73 765 -58 118
-129 151 -369 175 -90 9 -204 20 -254 25 -49 6 -245 26 -435 45 -190 20 -453
47 -585 60 -132 14 -328 34 -435 45 -107 10 -303 31 -435 45 -132 14 -379 39
-550 55 -170 17 -348 35 -395 40 -110 13 -169 11 -253 -5z m111 -297 c88 -54
94 -193 11 -283 -88 -95 -199 -108 -283 -34 -67 59 -67 179 1 258 74 87 185
111 271 59z m776 -142 c70 -29 104 -108 85 -197 -9 -44 -20 -63 -61 -103 -49
-47 -51 -52 -74 -155 -12 -58 -21 -108 -19 -110 8 -7 326 -37 330 -30 3 3 17
68 33 144 28 128 29 140 15 175 -54 137 121 253 217 144 47 -54 38 -135 -20
-184 -27 -22 -34 -40 -60 -160 -16 -74 -27 -136 -25 -138 4 -5 258 -32 262
-28 2 1 12 48 25 104 l21 102 -28 56 -28 56 16 52 c26 81 75 116 161 116 49 0
103 -31 123 -70 31 -62 4 -158 -55 -193 -24 -14 -32 -25 -29 -38 3 -11 1 -17
-4 -13 -5 3 -9 -3 -9 -13 0 -10 -7 -51 -17 -90 -9 -40 -14 -76 -10 -79 5 -6
207 -33 253 -34 18 0 23 12 43 105 l22 105 -21 28 c-50 68 -43 152 19 213 68
68 160 76 219 18 78 -76 54 -205 -49 -265 -10 -6 -22 -42 -33 -99 -10 -49 -20
-99 -22 -110 -4 -16 2 -23 29 -33 52 -19 123 -100 141 -163 9 -29 16 -67 16
-84 l0 -31 166 -19 c130 -14 170 -16 183 -7 73 54 148 53 198 -2 55 -60 56
-129 2 -191 -58 -65 -141 -70 -207 -11 -34 31 -45 34 -142 46 -58 7 -130 16
-160 20 -30 4 -57 6 -59 4 -5 -5 -71 -357 -68 -361 1 -1 68 -9 149 -19 l148
-18 30 29 c38 36 119 46 168 21 62 -32 85 -130 46 -196 -31 -53 -67 -74 -128
-74 -45 -1 -62 4 -99 31 -42 29 -58 33 -181 47 -74 9 -142 16 -150 16 -16 0
-25 -35 -61 -238 l-21 -123 20 -4 c12 -2 57 -9 101 -14 l80 -10 23 30 c32 40
72 59 127 59 88 0 147 -60 147 -151 0 -91 -67 -159 -157 -159 -39 0 -66 11
-106 44 -20 17 -50 24 -143 35 -65 7 -120 10 -123 8 -5 -6 -64 -320 -60 -323
1 -2 64 -11 139 -20 l136 -17 28 27 c61 56 138 58 199 5 87 -77 66 -222 -39
-270 -73 -33 -133 -19 -191 46 -29 32 -34 34 -175 53 l-145 21 -14 -22 c-60
-89 -160 -147 -265 -152 l-51 -3 -16 -69 c-10 -37 -32 -139 -50 -225 -30 -145
-31 -159 -16 -175 47 -52 40 -132 -16 -188 -44 -44 -95 -52 -152 -25 -87 42
-99 137 -26 215 15 17 28 40 29 52 1 18 52 269 81 396 10 43 18 40 -125 56
-124 15 -142 14 -148 -6 -3 -10 -26 -112 -50 -228 -44 -208 -44 -210 -25 -234
38 -48 14 -146 -45 -182 -78 -48 -178 -3 -191 85 -7 47 2 75 41 116 17 19 30
59 53 170 16 80 38 182 47 227 10 45 16 84 13 87 -5 6 -262 36 -267 31 -2 -1
-24 -96 -49 -210 -46 -204 -46 -207 -28 -237 36 -62 14 -150 -48 -189 -24 -15
-44 -19 -85 -16 -60 4 -95 30 -112 84 -16 46 -5 85 35 129 28 30 38 55 59 143
37 159 69 312 65 315 -8 7 -269 37 -278 32 -4 -3 -11 -20 -14 -38 -3 -18 -22
-107 -41 -197 l-34 -163 19 -32 c39 -63 14 -157 -50 -191 -62 -32 -151 -14
-177 36 -28 54 -10 153 31 176 10 6 30 79 60 217 25 114 45 215 45 225 0 10
-11 23 -25 29 -44 20 -114 92 -130 136 l-16 42 -155 18 c-86 10 -156 16 -158
14 -40 -64 -65 -91 -109 -113 -82 -41 -145 -29 -205 39 -32 36 -37 57 -33 126
10 152 196 244 295 145 31 -31 36 -32 181 -48 81 -10 149 -16 149 -15 1 2 17
77 35 168 18 90 35 169 37 175 3 7 -43 18 -127 29 l-131 18 -32 -30 c-44 -42
-68 -52 -123 -52 -87 0 -143 57 -143 145 0 87 84 165 176 165 40 0 68 -12 104
-46 21 -19 46 -25 155 -39 72 -9 135 -18 142 -20 18 -6 20 -1 53 156 17 79 33
151 35 159 4 13 -18 19 -132 33 l-138 16 -30 -29 c-55 -53 -119 -63 -191 -31
-77 35 -96 137 -41 220 30 45 80 71 137 71 47 0 73 -11 113 -48 25 -23 42 -28
173 -42 101 -11 147 -13 150 -6 7 23 63 270 61 272 -1 1 -78 10 -170 20 -139
14 -180 15 -233 5 -106 -19 -163 7 -199 91 -21 52 -19 95 9 154 52 111 188
157 277 94 37 -27 68 -91 69 -141 l0 -37 118 -11 c64 -7 127 -14 139 -17 20
-4 27 5 52 61 47 104 163 204 262 228 25 6 28 14 49 122 l23 116 -32 33 c-85
88 -55 232 60 290 59 29 104 33 153 12z m2370 -130 c51 -30 96 -106 96 -162
-1 -56 -31 -114 -80 -157 -54 -46 -98 -60 -165 -55 -202 17 -224 321 -29 394
52 19 126 11 178 -20z m-3815 -2895 c18 -13 42 -42 52 -65 69 -153 -77 -330
-237 -287 -123 33 -161 197 -72 305 46 56 92 77 163 73 45 -2 70 -9 94 -26z
m3064 -367 c55 -36 77 -78 77 -147 0 -123 -88 -211 -210 -211 -66 0 -109 20
-146 70 -59 77 -37 198 48 266 76 62 157 69 231 22z"/>
<path d="M3070 5257 c-105 -35 -166 -96 -209 -206 -11 -26 -36 -122 -56 -212
-19 -90 -65 -292 -100 -449 -115 -507 -165 -742 -165 -772 0 -34 24 -95 48
-121 41 -46 82 -55 453 -101 884 -110 1036 -127 1066 -116 50 19 104 63 123
100 10 19 57 224 105 455 47 231 113 551 146 710 91 439 91 437 73 487 -8 23
-22 51 -32 61 -44 49 -52 50 -862 131 -245 25 -463 47 -485 50 -26 3 -63 -3
-105 -17z"/>
<path d="M6261 5855 c29 -66 35 -173 14 -260 -16 -67 -36 -161 -125 -585 -23
-107 -63 -298 -90 -425 -46 -213 -116 -544 -240 -1135 -54 -258 -64 -309 -175
-830 -42 -195 -93 -439 -114 -542 -44 -210 -64 -257 -149 -349 -63 -69 -128
-112 -201 -133 -72 -21 -133 -20 -288 4 -70 11 -357 52 -638 90 -280 39 -703
98 -940 131 -236 33 -493 68 -570 79 -77 11 -397 56 -712 100 -314 44 -574 80
-577 80 -3 0 -6 -5 -6 -11 0 -6 7 -8 16 -5 8 3 12 2 9 -3 -13 -22 183 -129
319 -175 132 -44 186 -55 418 -86 123 -17 297 -41 388 -55 91 -13 298 -43 460
-65 162 -22 482 -67 710 -100 1242 -178 1352 -192 1435 -186 290 20 509 185
600 451 17 51 72 293 165 730 28 132 80 373 115 535 36 162 85 390 109 505 25
116 58 273 75 350 77 358 134 628 152 715 10 52 37 183 59 290 54 255 64 424
31 543 -36 133 -111 258 -198 333 -70 59 -74 60 -52 9z"/>
</g>
</svg>
